M48
;DRILL file {KiCad (2017-10-24 revision cffe1b51e)-master} date Wednesday, November 01, 2017 'AMt' 11:13:40 AM
;FORMAT={2:4/ absolute / inch / suppress leading zeros}
FMAT,2
INCH,TZ
T1C0.040
%
G90
G05
M72
T1
X14100Y-14050
X15100Y-14050
X16100Y-14050
X17100Y-14050
X18100Y-14050
X19100Y-14050
X12250Y-16500
X12250Y-17500
X13250Y-16500
X13250Y-17500
X14250Y-16500
X14250Y-17500
X15250Y-16500
X15250Y-17500
X16250Y-16500
X16250Y-17500
X17250Y-16500
X17250Y-17500
X18250Y-16500
X18250Y-17500
X19250Y-16500
X19250Y-17500
X20250Y-16500
X20250Y-17500
X21250Y-16500
X21250Y-17500
T0
M30
