G04 #@! TF.GenerationSoftware,KiCad,Pcbnew,(2017-10-24 revision cffe1b51e)-master*
G04 #@! TF.CreationDate,2017-11-01T11:13:37-07:00*
G04 #@! TF.ProjectId,jtag-swd,6A7461672D7377642E6B696361645F70,rev?*
G04 #@! TF.SameCoordinates,Original*
G04 #@! TF.FileFunction,Legend,Bot*
G04 #@! TF.FilePolarity,Positive*
%FSLAX46Y46*%
G04 Gerber Fmt 4.6, Leading zero omitted, Abs format (unit mm)*
G04 Created by KiCad (PCBNEW (2017-10-24 revision cffe1b51e)-master) date Wednesday, November 01, 2017 'AMt' 11:13:37 AM*
%MOMM*%
%LPD*%
G01*
G04 APERTURE LIST*
%ADD10C,0.190500*%
%ADD11C,0.150000*%
G04 APERTURE END LIST*
D10*
X46445714Y-37196032D02*
X45683714Y-37196032D01*
X46445714Y-37631460D01*
X45683714Y-37631460D01*
X46445714Y-38429746D02*
X46082857Y-38175746D01*
X46445714Y-37994317D02*
X45683714Y-37994317D01*
X45683714Y-38284603D01*
X45720000Y-38357175D01*
X45756285Y-38393460D01*
X45828857Y-38429746D01*
X45937714Y-38429746D01*
X46010285Y-38393460D01*
X46046571Y-38357175D01*
X46082857Y-38284603D01*
X46082857Y-37994317D01*
X46409428Y-38720032D02*
X46445714Y-38828889D01*
X46445714Y-39010317D01*
X46409428Y-39082889D01*
X46373142Y-39119175D01*
X46300571Y-39155460D01*
X46228000Y-39155460D01*
X46155428Y-39119175D01*
X46119142Y-39082889D01*
X46082857Y-39010317D01*
X46046571Y-38865175D01*
X46010285Y-38792603D01*
X45974000Y-38756317D01*
X45901428Y-38720032D01*
X45828857Y-38720032D01*
X45756285Y-38756317D01*
X45720000Y-38792603D01*
X45683714Y-38865175D01*
X45683714Y-39046603D01*
X45720000Y-39155460D01*
X45683714Y-39373175D02*
X45683714Y-39808603D01*
X46445714Y-39590889D02*
X45683714Y-39590889D01*
X40513000Y-37631460D02*
X40476714Y-37558889D01*
X40476714Y-37450032D01*
X40513000Y-37341175D01*
X40585571Y-37268603D01*
X40658142Y-37232317D01*
X40803285Y-37196032D01*
X40912142Y-37196032D01*
X41057285Y-37232317D01*
X41129857Y-37268603D01*
X41202428Y-37341175D01*
X41238714Y-37450032D01*
X41238714Y-37522603D01*
X41202428Y-37631460D01*
X41166142Y-37667746D01*
X40912142Y-37667746D01*
X40912142Y-37522603D01*
X41238714Y-37994317D02*
X40476714Y-37994317D01*
X41238714Y-38429746D01*
X40476714Y-38429746D01*
X41238714Y-38792603D02*
X40476714Y-38792603D01*
X40476714Y-38974032D01*
X40513000Y-39082889D01*
X40585571Y-39155460D01*
X40658142Y-39191746D01*
X40803285Y-39228032D01*
X40912142Y-39228032D01*
X41057285Y-39191746D01*
X41129857Y-39155460D01*
X41202428Y-39082889D01*
X41238714Y-38974032D01*
X41238714Y-38792603D01*
X48949428Y-37123460D02*
X48985714Y-37232317D01*
X48985714Y-37413746D01*
X48949428Y-37486317D01*
X48913142Y-37522603D01*
X48840571Y-37558889D01*
X48768000Y-37558889D01*
X48695428Y-37522603D01*
X48659142Y-37486317D01*
X48622857Y-37413746D01*
X48586571Y-37268603D01*
X48550285Y-37196032D01*
X48514000Y-37159746D01*
X48441428Y-37123460D01*
X48368857Y-37123460D01*
X48296285Y-37159746D01*
X48260000Y-37196032D01*
X48223714Y-37268603D01*
X48223714Y-37450032D01*
X48260000Y-37558889D01*
X48223714Y-37812889D02*
X48985714Y-37994317D01*
X48441428Y-38139460D01*
X48985714Y-38284603D01*
X48223714Y-38466032D01*
X48223714Y-38901460D02*
X48223714Y-39046603D01*
X48260000Y-39119175D01*
X48332571Y-39191746D01*
X48477714Y-39228032D01*
X48731714Y-39228032D01*
X48876857Y-39191746D01*
X48949428Y-39119175D01*
X48985714Y-39046603D01*
X48985714Y-38901460D01*
X48949428Y-38828889D01*
X48876857Y-38756317D01*
X48731714Y-38720032D01*
X48477714Y-38720032D01*
X48332571Y-38756317D01*
X48260000Y-38828889D01*
X48223714Y-38901460D01*
X43869428Y-37141603D02*
X43905714Y-37250460D01*
X43905714Y-37431889D01*
X43869428Y-37504460D01*
X43833142Y-37540746D01*
X43760571Y-37577032D01*
X43688000Y-37577032D01*
X43615428Y-37540746D01*
X43579142Y-37504460D01*
X43542857Y-37431889D01*
X43506571Y-37286746D01*
X43470285Y-37214175D01*
X43434000Y-37177889D01*
X43361428Y-37141603D01*
X43288857Y-37141603D01*
X43216285Y-37177889D01*
X43180000Y-37214175D01*
X43143714Y-37286746D01*
X43143714Y-37468175D01*
X43180000Y-37577032D01*
X43143714Y-37831032D02*
X43905714Y-38012460D01*
X43361428Y-38157603D01*
X43905714Y-38302746D01*
X43143714Y-38484175D01*
X43905714Y-38774460D02*
X43143714Y-38774460D01*
X43143714Y-38955889D01*
X43180000Y-39064746D01*
X43252571Y-39137317D01*
X43325142Y-39173603D01*
X43470285Y-39209889D01*
X43579142Y-39209889D01*
X43724285Y-39173603D01*
X43796857Y-39137317D01*
X43869428Y-39064746D01*
X43905714Y-38955889D01*
X43905714Y-38774460D01*
X43905714Y-39536460D02*
X43143714Y-39536460D01*
X43143714Y-40044460D02*
X43143714Y-40189603D01*
X43180000Y-40262175D01*
X43252571Y-40334746D01*
X43397714Y-40371032D01*
X43651714Y-40371032D01*
X43796857Y-40334746D01*
X43869428Y-40262175D01*
X43905714Y-40189603D01*
X43905714Y-40044460D01*
X43869428Y-39971889D01*
X43796857Y-39899317D01*
X43651714Y-39863032D01*
X43397714Y-39863032D01*
X43252571Y-39899317D01*
X43180000Y-39971889D01*
X43143714Y-40044460D01*
X38662428Y-37050889D02*
X38698714Y-37159746D01*
X38698714Y-37341175D01*
X38662428Y-37413746D01*
X38626142Y-37450032D01*
X38553571Y-37486317D01*
X38481000Y-37486317D01*
X38408428Y-37450032D01*
X38372142Y-37413746D01*
X38335857Y-37341175D01*
X38299571Y-37196032D01*
X38263285Y-37123460D01*
X38227000Y-37087175D01*
X38154428Y-37050889D01*
X38081857Y-37050889D01*
X38009285Y-37087175D01*
X37973000Y-37123460D01*
X37936714Y-37196032D01*
X37936714Y-37377460D01*
X37973000Y-37486317D01*
X37936714Y-37740317D02*
X38698714Y-37921746D01*
X38154428Y-38066889D01*
X38698714Y-38212032D01*
X37936714Y-38393460D01*
X38626142Y-39119175D02*
X38662428Y-39082889D01*
X38698714Y-38974032D01*
X38698714Y-38901460D01*
X38662428Y-38792603D01*
X38589857Y-38720032D01*
X38517285Y-38683746D01*
X38372142Y-38647460D01*
X38263285Y-38647460D01*
X38118142Y-38683746D01*
X38045571Y-38720032D01*
X37973000Y-38792603D01*
X37936714Y-38901460D01*
X37936714Y-38974032D01*
X37973000Y-39082889D01*
X38009285Y-39119175D01*
X38698714Y-39808603D02*
X38698714Y-39445746D01*
X37936714Y-39445746D01*
X38698714Y-40062603D02*
X37936714Y-40062603D01*
X38698714Y-40498032D02*
X38263285Y-40171460D01*
X37936714Y-40498032D02*
X38372142Y-40062603D01*
X35396714Y-37159746D02*
X36158714Y-37413746D01*
X35396714Y-37667746D01*
X35396714Y-37812889D02*
X35396714Y-38248317D01*
X36158714Y-38030603D02*
X35396714Y-38030603D01*
X36158714Y-38502317D02*
X35650714Y-38502317D01*
X35795857Y-38502317D02*
X35723285Y-38538603D01*
X35687000Y-38574889D01*
X35650714Y-38647460D01*
X35650714Y-38720032D01*
X36122428Y-39264317D02*
X36158714Y-39191746D01*
X36158714Y-39046603D01*
X36122428Y-38974032D01*
X36049857Y-38937746D01*
X35759571Y-38937746D01*
X35687000Y-38974032D01*
X35650714Y-39046603D01*
X35650714Y-39191746D01*
X35687000Y-39264317D01*
X35759571Y-39300603D01*
X35832142Y-39300603D01*
X35904714Y-38937746D01*
X35650714Y-39518317D02*
X35650714Y-39808603D01*
X36158714Y-39627175D02*
X35505571Y-39627175D01*
X35433000Y-39663460D01*
X35396714Y-39736032D01*
X35396714Y-39808603D01*
D11*
X55245000Y-40640000D02*
X29845000Y-40640000D01*
X32385000Y-45720000D02*
X55245000Y-45720000D01*
X55245000Y-40640000D02*
X55245000Y-45720000D01*
X29845000Y-40640000D02*
X29845000Y-43180000D01*
X31115000Y-46000000D02*
X29565000Y-46000000D01*
X29845000Y-43180000D02*
X32385000Y-43180000D01*
X32385000Y-43180000D02*
X32385000Y-45720000D01*
X29565000Y-46000000D02*
X29565000Y-44450000D01*
X33392857Y-38695380D02*
X33392857Y-39409666D01*
X33440476Y-39552523D01*
X33535714Y-39647761D01*
X33678571Y-39695380D01*
X33773809Y-39695380D01*
X33059523Y-38695380D02*
X32488095Y-38695380D01*
X32773809Y-39695380D02*
X32773809Y-38695380D01*
X32202380Y-39409666D02*
X31726190Y-39409666D01*
X32297619Y-39695380D02*
X31964285Y-38695380D01*
X31630952Y-39695380D01*
X30773809Y-38743000D02*
X30869047Y-38695380D01*
X31011904Y-38695380D01*
X31154761Y-38743000D01*
X31250000Y-38838238D01*
X31297619Y-38933476D01*
X31345238Y-39123952D01*
X31345238Y-39266809D01*
X31297619Y-39457285D01*
X31250000Y-39552523D01*
X31154761Y-39647761D01*
X31011904Y-39695380D01*
X30916666Y-39695380D01*
X30773809Y-39647761D01*
X30726190Y-39600142D01*
X30726190Y-39266809D01*
X30916666Y-39266809D01*
X29773809Y-39695380D02*
X30345238Y-39695380D01*
X30059523Y-39695380D02*
X30059523Y-38695380D01*
X30154761Y-38838238D01*
X30250000Y-38933476D01*
X30345238Y-38981095D01*
M02*
