%FSLAX45Y45*%
G04 Gerber Fmt 4.5, Leading zero omitted, Abs format (unit mm)*
G04 Created by KiCad (PCBNEW (2017-10-24 revision cffe1b51e)-master) date Wednesday, November 01, 2017 'AMt' 11:13:41 AM*
%MOMM*%
%LPD*%
G01*
G04 APERTURE LIST*
%ADD10C,0.150000*%
%ADD11C,0.200000*%
%ADD12C,0.300000*%
G04 APERTURE END LIST*
D10*
X2933700Y-4635500D02*
X5575300Y-4635500D01*
X2933700Y-3365500D02*
X2933700Y-4635500D01*
X5575300Y-3365500D02*
X2933700Y-3365500D01*
X5575300Y-4635500D02*
X5575300Y-3365500D01*
D11*
X3530600Y-3517900D02*
X3632200Y-3619500D01*
X3632200Y-3517900D02*
X3530600Y-3619500D01*
X3784600Y-3517900D02*
X3886200Y-3619500D01*
X3886200Y-3517900D02*
X3784600Y-3619500D01*
X4038600Y-3517900D02*
X4140200Y-3619500D01*
X4140200Y-3517900D02*
X4038600Y-3619500D01*
X4292600Y-3517900D02*
X4394200Y-3619500D01*
X4394200Y-3517900D02*
X4292600Y-3619500D01*
X4546600Y-3517900D02*
X4648200Y-3619500D01*
X4648200Y-3517900D02*
X4546600Y-3619500D01*
X4800600Y-3517900D02*
X4902200Y-3619500D01*
X4902200Y-3517900D02*
X4800600Y-3619500D01*
X3060700Y-4140200D02*
X3162300Y-4241800D01*
X3162300Y-4140200D02*
X3060700Y-4241800D01*
X3060700Y-4394200D02*
X3162300Y-4495800D01*
X3162300Y-4394200D02*
X3060700Y-4495800D01*
X3314700Y-4140200D02*
X3416300Y-4241800D01*
X3416300Y-4140200D02*
X3314700Y-4241800D01*
X3314700Y-4394200D02*
X3416300Y-4495800D01*
X3416300Y-4394200D02*
X3314700Y-4495800D01*
X3568700Y-4140200D02*
X3670300Y-4241800D01*
X3670300Y-4140200D02*
X3568700Y-4241800D01*
X3568700Y-4394200D02*
X3670300Y-4495800D01*
X3670300Y-4394200D02*
X3568700Y-4495800D01*
X3822700Y-4140200D02*
X3924300Y-4241800D01*
X3924300Y-4140200D02*
X3822700Y-4241800D01*
X3822700Y-4394200D02*
X3924300Y-4495800D01*
X3924300Y-4394200D02*
X3822700Y-4495800D01*
X4076700Y-4140200D02*
X4178300Y-4241800D01*
X4178300Y-4140200D02*
X4076700Y-4241800D01*
X4076700Y-4394200D02*
X4178300Y-4495800D01*
X4178300Y-4394200D02*
X4076700Y-4495800D01*
X4330700Y-4140200D02*
X4432300Y-4241800D01*
X4432300Y-4140200D02*
X4330700Y-4241800D01*
X4330700Y-4394200D02*
X4432300Y-4495800D01*
X4432300Y-4394200D02*
X4330700Y-4495800D01*
X4584700Y-4140200D02*
X4686300Y-4241800D01*
X4686300Y-4140200D02*
X4584700Y-4241800D01*
X4584700Y-4394200D02*
X4686300Y-4495800D01*
X4686300Y-4394200D02*
X4584700Y-4495800D01*
X4838700Y-4140200D02*
X4940300Y-4241800D01*
X4940300Y-4140200D02*
X4838700Y-4241800D01*
X4838700Y-4394200D02*
X4940300Y-4495800D01*
X4940300Y-4394200D02*
X4838700Y-4495800D01*
X5092700Y-4140200D02*
X5194300Y-4241800D01*
X5194300Y-4140200D02*
X5092700Y-4241800D01*
X5092700Y-4394200D02*
X5194300Y-4495800D01*
X5194300Y-4394200D02*
X5092700Y-4495800D01*
X5346700Y-4140200D02*
X5448300Y-4241800D01*
X5448300Y-4140200D02*
X5346700Y-4241800D01*
X5346700Y-4394200D02*
X5448300Y-4495800D01*
X5448300Y-4394200D02*
X5346700Y-4495800D01*
D12*
X3212628Y-5108714D02*
X3212628Y-4808714D01*
X3284057Y-4808714D01*
X3326914Y-4823000D01*
X3355486Y-4851572D01*
X3369771Y-4880143D01*
X3384057Y-4937286D01*
X3384057Y-4980143D01*
X3369771Y-5037286D01*
X3355486Y-5065857D01*
X3326914Y-5094429D01*
X3284057Y-5108714D01*
X3212628Y-5108714D01*
X3512628Y-5108714D02*
X3512628Y-4908714D01*
X3512628Y-4965857D02*
X3526914Y-4937286D01*
X3541200Y-4923000D01*
X3569771Y-4908714D01*
X3598343Y-4908714D01*
X3698343Y-5108714D02*
X3698343Y-4908714D01*
X3698343Y-4808714D02*
X3684057Y-4823000D01*
X3698343Y-4837286D01*
X3712628Y-4823000D01*
X3698343Y-4808714D01*
X3698343Y-4837286D01*
X3884057Y-5108714D02*
X3855486Y-5094429D01*
X3841200Y-5065857D01*
X3841200Y-4808714D01*
X4041200Y-5108714D02*
X4012628Y-5094429D01*
X3998343Y-5065857D01*
X3998343Y-4808714D01*
X4384057Y-5108714D02*
X4384057Y-4808714D01*
X4484057Y-5023000D01*
X4584057Y-4808714D01*
X4584057Y-5108714D01*
X4855486Y-5108714D02*
X4855486Y-4951572D01*
X4841200Y-4923000D01*
X4812628Y-4908714D01*
X4755486Y-4908714D01*
X4726914Y-4923000D01*
X4855486Y-5094429D02*
X4826914Y-5108714D01*
X4755486Y-5108714D01*
X4726914Y-5094429D01*
X4712628Y-5065857D01*
X4712628Y-5037286D01*
X4726914Y-5008714D01*
X4755486Y-4994429D01*
X4826914Y-4994429D01*
X4855486Y-4980143D01*
X4998343Y-4908714D02*
X4998343Y-5208714D01*
X4998343Y-4923000D02*
X5026914Y-4908714D01*
X5084057Y-4908714D01*
X5112628Y-4923000D01*
X5126914Y-4937286D01*
X5141200Y-4965857D01*
X5141200Y-5051572D01*
X5126914Y-5080143D01*
X5112628Y-5094429D01*
X5084057Y-5108714D01*
X5026914Y-5108714D01*
X4998343Y-5094429D01*
X5269771Y-5080143D02*
X5284057Y-5094429D01*
X5269771Y-5108714D01*
X5255486Y-5094429D01*
X5269771Y-5080143D01*
X5269771Y-5108714D01*
X5269771Y-4923000D02*
X5284057Y-4937286D01*
X5269771Y-4951572D01*
X5255486Y-4937286D01*
X5269771Y-4923000D01*
X5269771Y-4951572D01*
X2824600Y-5552200D02*
X2926200Y-5653800D01*
X2926200Y-5552200D02*
X2824600Y-5653800D01*
X3369771Y-5738714D02*
X3198343Y-5738714D01*
X3284057Y-5738714D02*
X3284057Y-5438714D01*
X3255486Y-5481572D01*
X3226914Y-5510143D01*
X3198343Y-5524429D01*
X3498343Y-5710143D02*
X3512628Y-5724429D01*
X3498343Y-5738714D01*
X3484057Y-5724429D01*
X3498343Y-5710143D01*
X3498343Y-5738714D01*
X3698343Y-5438714D02*
X3726914Y-5438714D01*
X3755486Y-5453000D01*
X3769771Y-5467286D01*
X3784057Y-5495857D01*
X3798343Y-5553000D01*
X3798343Y-5624429D01*
X3784057Y-5681571D01*
X3769771Y-5710143D01*
X3755486Y-5724429D01*
X3726914Y-5738714D01*
X3698343Y-5738714D01*
X3669771Y-5724429D01*
X3655486Y-5710143D01*
X3641200Y-5681571D01*
X3626914Y-5624429D01*
X3626914Y-5553000D01*
X3641200Y-5495857D01*
X3655486Y-5467286D01*
X3669771Y-5453000D01*
X3698343Y-5438714D01*
X3912628Y-5467286D02*
X3926914Y-5453000D01*
X3955486Y-5438714D01*
X4026914Y-5438714D01*
X4055486Y-5453000D01*
X4069771Y-5467286D01*
X4084057Y-5495857D01*
X4084057Y-5524429D01*
X4069771Y-5567286D01*
X3898343Y-5738714D01*
X4084057Y-5738714D01*
X4212628Y-5738714D02*
X4212628Y-5538714D01*
X4212628Y-5567286D02*
X4226914Y-5553000D01*
X4255486Y-5538714D01*
X4298343Y-5538714D01*
X4326914Y-5553000D01*
X4341200Y-5581572D01*
X4341200Y-5738714D01*
X4341200Y-5581572D02*
X4355486Y-5553000D01*
X4384057Y-5538714D01*
X4426914Y-5538714D01*
X4455486Y-5553000D01*
X4469771Y-5581572D01*
X4469771Y-5738714D01*
X4612628Y-5738714D02*
X4612628Y-5538714D01*
X4612628Y-5567286D02*
X4626914Y-5553000D01*
X4655486Y-5538714D01*
X4698343Y-5538714D01*
X4726914Y-5553000D01*
X4741200Y-5581572D01*
X4741200Y-5738714D01*
X4741200Y-5581572D02*
X4755486Y-5553000D01*
X4784057Y-5538714D01*
X4826914Y-5538714D01*
X4855486Y-5553000D01*
X4869771Y-5581572D01*
X4869771Y-5738714D01*
X5455486Y-5424429D02*
X5198343Y-5810143D01*
X5841200Y-5438714D02*
X5869771Y-5438714D01*
X5898343Y-5453000D01*
X5912628Y-5467286D01*
X5926914Y-5495857D01*
X5941200Y-5553000D01*
X5941200Y-5624429D01*
X5926914Y-5681571D01*
X5912628Y-5710143D01*
X5898343Y-5724429D01*
X5869771Y-5738714D01*
X5841200Y-5738714D01*
X5812628Y-5724429D01*
X5798343Y-5710143D01*
X5784057Y-5681571D01*
X5769771Y-5624429D01*
X5769771Y-5553000D01*
X5784057Y-5495857D01*
X5798343Y-5467286D01*
X5812628Y-5453000D01*
X5841200Y-5438714D01*
X6069771Y-5710143D02*
X6084057Y-5724429D01*
X6069771Y-5738714D01*
X6055486Y-5724429D01*
X6069771Y-5710143D01*
X6069771Y-5738714D01*
X6269771Y-5438714D02*
X6298343Y-5438714D01*
X6326914Y-5453000D01*
X6341200Y-5467286D01*
X6355486Y-5495857D01*
X6369771Y-5553000D01*
X6369771Y-5624429D01*
X6355486Y-5681571D01*
X6341200Y-5710143D01*
X6326914Y-5724429D01*
X6298343Y-5738714D01*
X6269771Y-5738714D01*
X6241200Y-5724429D01*
X6226914Y-5710143D01*
X6212628Y-5681571D01*
X6198343Y-5624429D01*
X6198343Y-5553000D01*
X6212628Y-5495857D01*
X6226914Y-5467286D01*
X6241200Y-5453000D01*
X6269771Y-5438714D01*
X6626914Y-5538714D02*
X6626914Y-5738714D01*
X6555486Y-5424429D02*
X6484057Y-5638714D01*
X6669771Y-5638714D01*
X6841200Y-5438714D02*
X6869771Y-5438714D01*
X6898343Y-5453000D01*
X6912628Y-5467286D01*
X6926914Y-5495857D01*
X6941200Y-5553000D01*
X6941200Y-5624429D01*
X6926914Y-5681571D01*
X6912628Y-5710143D01*
X6898343Y-5724429D01*
X6869771Y-5738714D01*
X6841200Y-5738714D01*
X6812628Y-5724429D01*
X6798343Y-5710143D01*
X6784057Y-5681571D01*
X6769771Y-5624429D01*
X6769771Y-5553000D01*
X6784057Y-5495857D01*
X6798343Y-5467286D01*
X6812628Y-5453000D01*
X6841200Y-5438714D01*
X7055486Y-5438714D02*
X7055486Y-5495857D01*
X7169771Y-5438714D02*
X7169771Y-5495857D01*
X7612628Y-5853000D02*
X7598343Y-5838714D01*
X7569771Y-5795857D01*
X7555486Y-5767286D01*
X7541200Y-5724429D01*
X7526914Y-5653000D01*
X7526914Y-5595857D01*
X7541200Y-5524429D01*
X7555486Y-5481572D01*
X7569771Y-5453000D01*
X7598343Y-5410143D01*
X7612628Y-5395857D01*
X7712628Y-5467286D02*
X7726914Y-5453000D01*
X7755486Y-5438714D01*
X7826914Y-5438714D01*
X7855486Y-5453000D01*
X7869771Y-5467286D01*
X7884057Y-5495857D01*
X7884057Y-5524429D01*
X7869771Y-5567286D01*
X7698343Y-5738714D01*
X7884057Y-5738714D01*
X8141200Y-5438714D02*
X8084057Y-5438714D01*
X8055486Y-5453000D01*
X8041200Y-5467286D01*
X8012628Y-5510143D01*
X7998343Y-5567286D01*
X7998343Y-5681571D01*
X8012628Y-5710143D01*
X8026914Y-5724429D01*
X8055486Y-5738714D01*
X8112628Y-5738714D01*
X8141200Y-5724429D01*
X8155486Y-5710143D01*
X8169771Y-5681571D01*
X8169771Y-5610143D01*
X8155486Y-5581572D01*
X8141200Y-5567286D01*
X8112628Y-5553000D01*
X8055486Y-5553000D01*
X8026914Y-5567286D01*
X8012628Y-5581572D01*
X7998343Y-5610143D01*
X8526914Y-5738714D02*
X8526914Y-5438714D01*
X8655486Y-5738714D02*
X8655486Y-5581572D01*
X8641200Y-5553000D01*
X8612628Y-5538714D01*
X8569771Y-5538714D01*
X8541200Y-5553000D01*
X8526914Y-5567286D01*
X8841200Y-5738714D02*
X8812628Y-5724429D01*
X8798343Y-5710143D01*
X8784057Y-5681571D01*
X8784057Y-5595857D01*
X8798343Y-5567286D01*
X8812628Y-5553000D01*
X8841200Y-5538714D01*
X8884057Y-5538714D01*
X8912628Y-5553000D01*
X8926914Y-5567286D01*
X8941200Y-5595857D01*
X8941200Y-5681571D01*
X8926914Y-5710143D01*
X8912628Y-5724429D01*
X8884057Y-5738714D01*
X8841200Y-5738714D01*
X9112628Y-5738714D02*
X9084057Y-5724429D01*
X9069771Y-5695857D01*
X9069771Y-5438714D01*
X9341200Y-5724429D02*
X9312628Y-5738714D01*
X9255486Y-5738714D01*
X9226914Y-5724429D01*
X9212628Y-5695857D01*
X9212628Y-5581572D01*
X9226914Y-5553000D01*
X9255486Y-5538714D01*
X9312628Y-5538714D01*
X9341200Y-5553000D01*
X9355486Y-5581572D01*
X9355486Y-5610143D01*
X9212628Y-5638714D01*
X9469771Y-5724429D02*
X9498343Y-5738714D01*
X9555486Y-5738714D01*
X9584057Y-5724429D01*
X9598343Y-5695857D01*
X9598343Y-5681571D01*
X9584057Y-5653000D01*
X9555486Y-5638714D01*
X9512628Y-5638714D01*
X9484057Y-5624429D01*
X9469771Y-5595857D01*
X9469771Y-5581572D01*
X9484057Y-5553000D01*
X9512628Y-5538714D01*
X9555486Y-5538714D01*
X9584057Y-5553000D01*
X9698343Y-5853000D02*
X9712628Y-5838714D01*
X9741200Y-5795857D01*
X9755486Y-5767286D01*
X9769771Y-5724429D01*
X9784057Y-5653000D01*
X9784057Y-5595857D01*
X9769771Y-5524429D01*
X9755486Y-5481572D01*
X9741200Y-5453000D01*
X9712628Y-5410143D01*
X9698343Y-5395857D01*
M02*
