G04 #@! TF.GenerationSoftware,KiCad,Pcbnew,(2017-10-24 revision cffe1b51e)-master*
G04 #@! TF.CreationDate,2017-11-01T11:13:37-07:00*
G04 #@! TF.ProjectId,jtag-swd,6A7461672D7377642E6B696361645F70,rev?*
G04 #@! TF.SameCoordinates,Original*
G04 #@! TF.FileFunction,Legend,Top*
G04 #@! TF.FilePolarity,Positive*
%FSLAX46Y46*%
G04 Gerber Fmt 4.6, Leading zero omitted, Abs format (unit mm)*
G04 Created by KiCad (PCBNEW (2017-10-24 revision cffe1b51e)-master) date Wednesday, November 01, 2017 'AMt' 11:13:37 AM*
%MOMM*%
%LPD*%
G01*
G04 APERTURE LIST*
%ADD10C,0.200000*%
%ADD11C,0.150000*%
G04 APERTURE END LIST*
D10*
X33020000Y-36068000D02*
X33655000Y-35560000D01*
X33655000Y-35560000D02*
X33020000Y-35052000D01*
X30099000Y-35560000D02*
X33655000Y-35560000D01*
D11*
X37084000Y-36957000D02*
X49784000Y-36957000D01*
X49784000Y-36957000D02*
X49784000Y-34417000D01*
X49784000Y-34417000D02*
X37084000Y-34417000D01*
X34264000Y-37237000D02*
X35814000Y-37237000D01*
X37084000Y-36957000D02*
X37084000Y-34417000D01*
X35814000Y-34137000D02*
X34264000Y-34137000D01*
X34264000Y-34137000D02*
X34264000Y-37237000D01*
X30259566Y-37615761D02*
X30402423Y-37663380D01*
X30640519Y-37663380D01*
X30735757Y-37615761D01*
X30783376Y-37568142D01*
X30830995Y-37472904D01*
X30830995Y-37377666D01*
X30783376Y-37282428D01*
X30735757Y-37234809D01*
X30640519Y-37187190D01*
X30450042Y-37139571D01*
X30354804Y-37091952D01*
X30307185Y-37044333D01*
X30259566Y-36949095D01*
X30259566Y-36853857D01*
X30307185Y-36758619D01*
X30354804Y-36711000D01*
X30450042Y-36663380D01*
X30688138Y-36663380D01*
X30830995Y-36711000D01*
X31164328Y-36663380D02*
X31402423Y-37663380D01*
X31592900Y-36949095D01*
X31783376Y-37663380D01*
X32021471Y-36663380D01*
X32402423Y-37663380D02*
X32402423Y-36663380D01*
X32640519Y-36663380D01*
X32783376Y-36711000D01*
X32878614Y-36806238D01*
X32926233Y-36901476D01*
X32973852Y-37091952D01*
X32973852Y-37234809D01*
X32926233Y-37425285D01*
X32878614Y-37520523D01*
X32783376Y-37615761D01*
X32640519Y-37663380D01*
X32402423Y-37663380D01*
X33926233Y-37663380D02*
X33354804Y-37663380D01*
X33640519Y-37663380D02*
X33640519Y-36663380D01*
X33545280Y-36806238D01*
X33450042Y-36901476D01*
X33354804Y-36949095D01*
M02*
